Coordinates
version=1
nRows=21
nColumns=12
inDegrees=yes

Units are S.I. units (second, meters, Newtons, ...)
Angles are in degrees

endheader
time	SC_y	SC_z	SC_x	AC_y	AC_z	AC_x	GH_y	GH_z	GH_yy	EL_x	PS_y
       0.0               -22.4          32.73          11.85          58.48          8.927         -10.11         -168.8          41.18         -147.5          17.31          52.04
  0.004655               -22.4          32.72          11.85          58.48          8.923         -10.11         -168.8          41.17         -147.5          17.33          52.05
   0.00931               -22.4          32.72          11.85          58.47           8.92         -10.12         -168.7          41.17         -147.5          17.34          52.05
   0.01397              -22.41          32.71          11.85          58.47          8.916         -10.12         -168.7          41.16         -147.5          17.36          52.06
   0.01862              -22.41          32.71          11.85          58.47          8.912         -10.12         -168.7          41.15         -147.5          17.38          52.07
   0.02328              -22.42           32.7          11.85          58.47          8.907         -10.12         -168.7          41.14         -147.5           17.4          52.08
   0.02793              -22.42          32.69          11.85          58.47          8.902         -10.12         -168.6          41.13         -147.5          17.42          52.09
   0.03259              -22.43          32.69          11.84          58.47          8.897         -10.12         -168.6          41.12         -147.5          17.45           52.1
   0.03724              -22.43          32.68          11.84          58.47          8.891         -10.12         -168.6          41.11         -147.5          17.47          52.11
    0.0419              -22.44          32.67          11.84          58.47          8.886         -10.13         -168.5           41.1         -147.5           17.5          52.12
   0.04655              -22.44          32.67          11.84          58.47          8.879         -10.13         -168.5          41.09         -147.5          17.53          52.13
   0.05121              -22.45          32.66          11.84          58.47          8.872         -10.13         -168.4          41.08         -147.5          17.56          52.14
   0.05586              -22.46          32.65          11.83          58.47          8.865         -10.13         -168.4          41.06         -147.5           17.6          52.16
   0.06052              -22.47          32.64          11.83          58.47          8.857         -10.14         -168.3          41.05         -147.5          17.63          52.17
   0.06517              -22.47          32.63          11.83          58.46          8.848         -10.14         -168.3          41.03         -147.5          17.67          52.19
   0.06983              -22.48          32.61          11.83          58.46          8.839         -10.14         -168.2          41.01         -147.5          17.72           52.2
   0.07448              -22.49           32.6          11.82          58.46          8.829         -10.14         -168.2          40.99         -147.5          17.76          52.22
   0.07914               -22.5          32.59          11.82          58.46          8.818         -10.15         -168.1          40.97         -147.5          17.81          52.24
   0.08379              -22.52          32.57          11.82          58.46          8.806         -10.15         -168.0          40.95         -147.5          17.87          52.27
   0.08845              -22.53          32.56          11.81          58.46          8.792         -10.16         -167.9          40.92         -147.5          17.93          52.29
    0.0931              -22.54          32.54          11.81          58.45          8.778         -10.16         -167.9           40.9         -147.5           18.0          52.32
